<mxfile host="app.diagrams.net" modified="2024-07-26T02:16:01.937Z" agent="Mozilla/5.0 (Macintosh; Intel Mac OS X 10_15_7) AppleWebKit/537.36 (KHTML, like Gecko) Chrome/126.0.0.0 Safari/537.36 Edg/126.0.0.0" version="24.6.4" etag="_BELAOA-4jFOujIuXwYg" type="github">
  <diagram name="Trang-1" id="u8uV4H1pWIUucGoh-XhC">
    <mxGraphModel>
      <root>
        <mxCell id="0" />
        <mxCell id="1" parent="0" />
      </root>
    </mxGraphModel>
  </diagram>
</mxfile>
